<?xml version="1.0" standalone="no"?>
<!DOCTYPE svg PUBLIC "-//W3C//DTD SVG 20010904//EN"
 "http://www.w3.org/TR/2001/REC-SVG-20010904/DTD/svg10.dtd">
<svg version="1.0" xmlns="http://www.w3.org/2000/svg"
 width="73.000000pt" height="77.000000pt" viewBox="0 0 73.000000 77.000000"
 preserveAspectRatio="xMidYMid meet">

<g transform="translate(0.000000,77.000000) scale(0.100000,-0.100000)"
fill="#000000" stroke="none">
<path d="M403 735 c-41 -33 -72 -83 -89 -148 -21 -79 -18 -79 149 -36 l47 12
0 56 c0 63 -32 141 -58 141 -10 0 -31 -11 -49 -25z"/>
<path d="M100 622 c0 -29 8 -63 21 -87 32 -61 89 -126 107 -123 14 3 48 92 66
176 7 31 6 33 -46 57 -33 15 -71 25 -100 25 l-48 0 0 -48z"/>
<path d="M478 539 c-25 -7 -38 -17 -38 -28 0 -9 32 -48 70 -86 l71 -70 37 21
c39 23 102 96 102 120 0 41 -152 68 -242 43z"/>
<path d="M306 459 c-34 -40 -33 -74 3 -110 36 -36 70 -37 110 -3 41 34 42 79
3 117 -39 38 -82 36 -116 -4z"/>
<path d="M94 419 c-50 -39 -88 -94 -80 -114 21 -55 276 -62 276 -7 0 19 -128
152 -146 152 -6 0 -29 -14 -50 -31z"/>
<path d="M487 393 c-3 -5 -15 -44 -27 -88 -12 -44 -24 -88 -26 -98 -4 -13 7
-23 48 -42 65 -31 147 -35 149 -7 5 73 -24 142 -83 203 -37 38 -53 46 -61 32z"/>
<path d="M298 267 l-78 -21 0 -55 c0 -67 32 -141 61 -141 51 0 135 120 141
201 3 30 0 34 -22 36 -14 1 -60 -8 -102 -20z"/>
</g>
</svg>
